# xmcd
#
# Track frame offsets:
#   150
#   12731
#   34093
#   50195
#   66369
#   81748
#   97123
#   112941
#   124968
#   140285
#   155798
#
# Disc length: 2222 seconds
#
# Revision: 0
# Processed by: cddbd v1.5.2PL0 Copyright (c) Steve Scherf et al.
# Submitted via: uFREEDB ActiveX Control 1.5
#
DISCID=a808ac0b
DTITLE=Emílio Santiago - Os Grandes da MPB V035
DYEAR=1997
DGENRE=Latin
TTITLE0=As Rosas Não Falam
TTITLE1=Logo Agora
TTITLE2=Nêga
TTITLE3=No Balanço do Trem
TTITLE4=Última Forma
TTITLE5=E Agora (O que Faço para Esquecer)
TTITLE6=Ponto Final
TTITLE7=Minhas Madrugadas
TTITLE8=Pelo Amor de Deus
TTITLE9=Dores de Amores
TTITLE10=Maria
EXTD=
EXTT0=
EXTT1=
EXTT2=
EXTT3=
EXTT4=
EXTT5=
EXTT6=
EXTT7=
EXTT8=
EXTT9=
EXTT10=
PLAYORDER=
